<?xml version="1.0" encoding="UTF-8" standalone="no"?>
<!-- Created with Inkscape (http://www.inkscape.org/) -->

<svg
   version="1.1"
   id="svg1"
   width="506.40891"
   height="582.78558"
   viewBox="0 0 506.40891 582.78558"
   sodipodi:docname="fav.svg"
   inkscape:version="1.3.2 (091e20e, 2023-11-25, custom)"
   xmlns:inkscape="http://www.inkscape.org/namespaces/inkscape"
   xmlns:sodipodi="http://sodipodi.sourceforge.net/DTD/sodipodi-0.dtd"
   xmlns="http://www.w3.org/2000/svg"
   xmlns:svg="http://www.w3.org/2000/svg">
  <defs
     id="defs1" />
  <sodipodi:namedview
     id="namedview1"
     pagecolor="#ffffff"
     bordercolor="#000000"
     borderopacity="0.25"
     inkscape:showpageshadow="2"
     inkscape:pageopacity="0.0"
     inkscape:pagecheckerboard="0"
     inkscape:deskcolor="#d1d1d1"
     showgrid="false"
     inkscape:zoom="0.82040572"
     inkscape:cx="223.06037"
     inkscape:cy="301.68"
     inkscape:window-width="1792"
     inkscape:window-height="1049"
     inkscape:window-x="-8"
     inkscape:window-y="-8"
     inkscape:window-maximized="1"
     inkscape:current-layer="g1" />
  <g
     inkscape:groupmode="layer"
     inkscape:label="Image"
     id="g1"
     transform="translate(-132.69009,-70.766926)">
    <path
       style="fill:#fb7185;fill-opacity:1"
       d="m 197.27127,651.72062 c -21.61749,-4.56734 -42.00678,-16.94058 -57.13588,-34.67292 -7.44852,-8.73017 -8.83466,-12.73615 -6.24314,-18.0428 1.45824,-2.98605 2.84492,-4.18156 6.19234,-5.33866 4.18727,-1.44741 4.46489,-1.40839 9.5,1.3353 14.35908,7.82443 24.78446,12.66541 30.33102,14.0841 7.78594,1.99146 23.17415,2.03034 30.67163,0.0775 17.39009,-4.52954 32.0976,-19.03017 38.37406,-37.83426 2.70568,-8.10612 2.73048,-8.43033 3.09229,-40.42166 0.20061,-17.7375 0.66915,-32.241 1.04121,-32.23001 0.37206,0.011 4.50147,0.70528 9.17647,1.54284 5.40722,0.96875 18.23317,1.7373 35.25,2.11223 l 26.75,0.58938 -0.0173,24.11778 c -0.0276,38.45272 -1.86927,49.57571 -11.44389,69.11778 -14.33386,29.25585 -42.29088,50.36625 -74.06043,55.92317 -11.98259,2.09592 -30.62061,1.93425 -41.47838,-0.35977 z m 80.5,-168.76465 C 222.975,477.95523 174.66678,445.31749 150.77763,397.15722 c -11.49845,-23.18076 -16.16762,-44.82686 -15.20719,-70.5 0.62399,-16.67988 2.51937,-28.20423 6.78603,-41.26071 7.53624,-23.0618 19.43958,-42.36773 36.86349,-59.78857 17.68856,-17.68545 36.97441,-29.66211 60.17163,-37.36704 21.79747,-7.24001 34.39875,-8.58368 80.49985,-8.58368 h 35.699 l 5.8092,-5.54103 c 8.29688,-7.91389 14.88152,-10.66747 26.89215,-11.24582 15.17099,-0.73053 27.28295,2.33912 61.92446,15.69411 18.28037,7.04745 24.49876,10.50133 31.63363,17.57028 18.27161,18.10281 9.08383,41.05986 -21.10112,52.72431 -33.27832,12.85983 -48.06844,17.41923 -61.69021,19.01743 -16.87254,1.9796 -29.69431,-2.06708 -39.38908,-12.43157 l -4.62781,-4.94749 -39.13519,0.42795 c -42.56967,0.46551 -44.61535,0.69797 -58.63157,6.6624 -29.67705,12.62872 -49.77551,42.06662 -49.96874,73.18844 -0.0518,8.33622 2.60999,22.02808 5.97094,30.71411 8.38846,21.67908 31.24141,41.18127 56.80046,48.47219 7.663,2.18593 8.05093,2.19469 97.19371,2.19469 88.14452,0 89.68174,-0.0336 101.5,-2.21697 40.06736,-7.40234 67.04925,-25.6554 82.45916,-55.78303 11.44885,-22.38343 17.73231,-60.77157 15.23596,-93.0824 -1.86795,-24.17721 -7.6615,-53.02166 -13.79128,-68.66298 -6.66794,-17.0145 -20.46652,-32.99127 -34.90384,-40.41361 -9.06361,-4.65967 -15.13205,-6.57378 -27.88099,-8.79423 -7.43605,-1.29512 -20.04536,-1.54519 -77.5,-1.53701 l -68.61901,0.01 -5.04087,2.34733 c -5.63651,2.6247 -9.84694,7.06265 -12.14168,12.79776 l -1.53461,3.83514 -27.14142,0.0659 c -16.05667,0.039 -30.76884,0.57979 -36.0233,1.32421 l -8.88187,1.25832 0.6085,-7.1986 c 1.61309,-19.08277 12.74337,-41.68292 28.08276,-57.022302 11.86382,-11.86385 27.38629,-20.88531 44.07249,-25.6144 7.93462,-2.24878 8.60478,-2.27 82,-2.59682 76.74474,-0.34173 84.22697,-0.0619 103.85655,3.88375 53.39412,10.73259 92.54588,44.854512 110.61005,96.399942 7.40059,21.11731 13.88299,53.02876 16.14939,79.5 1.44666,16.89674 0.57162,54.84129 -1.5756,68.32308 -4.10862,25.79691 -9.64553,44.66129 -18.68323,63.65413 -28.02383,58.89249 -81.79069,93.16062 -156.85716,99.97241 -10.57213,0.95935 -173.41839,1.26919 -183.5,0.34913 z"
       id="path1" />
  </g>
</svg>
