<?xml version="1.0" encoding="UTF-8"?>
<!-- Created with Inkscape (http://www.inkscape.org/) -->
<svg width="506.41" height="582.79" version="1.1" viewBox="0 0 506.41 582.79" xmlns="http://www.w3.org/2000/svg">
 <g transform="translate(-132.69 -70.767)">
  <path d="m197.27 651.72c-21.617-4.5673-42.007-16.941-57.136-34.673-7.4485-8.7302-8.8347-12.736-6.2431-18.043 1.4582-2.986 2.8449-4.1816 6.1923-5.3387 4.1873-1.4474 4.4649-1.4084 9.5 1.3353 14.359 7.8244 24.784 12.665 30.331 14.084 7.7859 1.9915 23.174 2.0303 30.672 0.0775 17.39-4.5295 32.098-19.03 38.374-37.834 2.7057-8.1061 2.7305-8.4303 3.0923-40.422 0.20061-17.738 0.66915-32.241 1.0412-32.23 0.37206 0.011 4.5015 0.70528 9.1765 1.5428 5.4072 0.96875 18.233 1.7373 35.25 2.1122l26.75 0.58938-0.0173 24.118c-0.0276 38.453-1.8693 49.576-11.444 69.118-14.334 29.256-42.291 50.366-74.06 55.923-11.983 2.0959-30.621 1.9342-41.478-0.35977zm80.5-168.76c-54.796-5.0007-103.1-37.638-126.99-85.799-11.498-23.181-16.168-44.827-15.207-70.5 0.62399-16.68 2.5194-28.204 6.786-41.261 7.5362-23.062 19.44-42.368 36.863-59.789 17.689-17.685 36.974-29.662 60.172-37.367 21.797-7.24 34.399-8.5837 80.5-8.5837h35.699l5.8092-5.541c8.2969-7.9139 14.882-10.667 26.892-11.246 15.171-0.73053 27.283 2.3391 61.924 15.694 18.28 7.0474 24.499 10.501 31.634 17.57 18.272 18.103 9.0838 41.06-21.101 52.724-33.278 12.86-48.068 17.419-61.69 19.017-16.873 1.9796-29.694-2.0671-39.389-12.432l-4.6278-4.9475-39.135 0.42795c-42.57 0.46551-44.615 0.69797-58.632 6.6624-29.677 12.629-49.776 42.067-49.969 73.188-0.0518 8.3362 2.61 22.028 5.9709 30.714 8.3885 21.679 31.241 41.181 56.8 48.472 7.663 2.1859 8.0509 2.1947 97.194 2.1947 88.145 0 89.682-0.0336 101.5-2.217 40.067-7.4023 67.049-25.655 82.459-55.783 11.449-22.383 17.732-60.772 15.236-93.082-1.868-24.177-7.6615-53.022-13.791-68.663-6.6679-17.014-20.467-32.991-34.904-40.414-9.0636-4.6597-15.132-6.5738-27.881-8.7942-7.436-1.2951-20.045-1.5452-77.5-1.537l-68.619 0.01-5.0409 2.3473c-5.6365 2.6247-9.8469 7.0626-12.142 12.798l-1.5346 3.8351-27.141 0.0659c-16.057 0.039-30.769 0.57979-36.023 1.3242l-8.8819 1.2583 0.6085-7.1986c1.6131-19.083 12.743-41.683 28.083-57.022 11.864-11.864 27.386-20.885 44.072-25.614 7.9346-2.2488 8.6048-2.27 82-2.5968 76.745-0.34173 84.227-0.0619 103.86 3.8838 53.394 10.733 92.546 44.855 110.61 96.4 7.4006 21.117 13.883 53.029 16.149 79.5 1.4467 16.897 0.57162 54.841-1.5756 68.323-4.1086 25.797-9.6455 44.661-18.683 63.654-28.024 58.892-81.791 93.161-156.86 99.972-10.572 0.95935-173.42 1.2692-183.5 0.34913z" fill="#e61f58"/>
 </g>
</svg>
